<?xml version="1.0" encoding="utf-8"?>
<!-- Generator: Adobe Illustrator 24.0.1, SVG Export Plug-In . SVG Version: 6.00 Build 0)  -->
<svg version="1.1" id="ico" xmlns="http://www.w3.org/2000/svg" xmlns:xlink="http://www.w3.org/1999/xlink" x="0px" y="0px"
	 width="50px" height="50px" viewBox="0 0 50 50" style="enable-background:new 0 0 50 50;" xml:space="preserve">
<path d="M46.54,20.38h-7.98c-0.359,0-0.65,0.291-0.65,0.65v2.41c-0.831-0.304-2.226-0.649-4.58-0.912l-1.074-0.122
	c-3.604-0.413-5.779-0.662-8.944,0.203c-3.165,0.863-7.488,1.082-8.408,1.006c-0.522-0.046-1.046,0.25-1.392,0.791
	c-0.485,0.759-0.509,1.754-0.061,2.535c0.453,0.789,1.546,1.701,4.243,1.604c5.033-0.193,7.589,0.199,8.863,0.583
	c-1.162,0.289-2.49,0.793-3.008,1.646l-7.945,0.378L5.856,27.91C5.26,27.7,4.598,27.75,4.04,28.042
	c-0.559,0.292-0.977,0.809-1.146,1.417c-0.302,1.088,0.243,2.249,1.268,2.7c0.983,0.432,2.287,1.046,3.653,1.69
	c3.871,1.825,6.477,3.027,7.388,3.108l0.468,0.05c1.514,0.167,5.615,0.62,8.958,0.62c0.652,0,1.276-0.017,1.846-0.057
	c4.9-0.344,10.022-1.422,11.436-1.735v0.918c0,0.359,0.291,0.65,0.65,0.65h7.98c0.359,0,0.65-0.291,0.65-0.65V21.03
	C47.189,20.671,46.898,20.38,46.54,20.38z M26.383,36.274c-3.369,0.238-8.789-0.362-10.57-0.559
	c-0.245-0.027-0.415-0.045-0.494-0.053c-0.75-0.067-4.333-1.756-6.95-2.989c-1.378-0.649-2.693-1.269-3.684-1.704
	c-0.437-0.193-0.668-0.693-0.538-1.163c0.074-0.267,0.25-0.484,0.495-0.612c0.245-0.129,0.524-0.149,0.795-0.054l9.873,3.284
	c0.076,0.025,0.157,0.035,0.236,0.033l8.476-0.403c0.301-0.015,0.552-0.233,0.608-0.529c0.102-0.541,1.987-1.171,3.664-1.401
	c0.873,0.727,1.241,1.503,1.249,1.519c0.108,0.24,0.345,0.383,0.593,0.383c0.088,0,0.178-0.019,0.264-0.057
	c0.328-0.146,0.476-0.53,0.33-0.858c-0.027-0.061-0.603-1.305-2.028-2.308c-0.742-0.804-3.19-1.864-11.056-1.557
	c-1.876,0.073-3.079-0.434-3.202-1.358c-0.073-0.551,0.249-0.951,0.35-0.977c1.104,0.094,5.584-0.152,8.863-1.047
	c2.923-0.798,4.888-0.574,8.453-0.166l1.078,0.123c3.159,0.353,4.352,0.826,4.725,1.012v9.672
	C37.142,34.679,31.621,35.905,26.383,36.274z M45.89,36.104h-6.68V21.68h6.68V36.104z M12.947,13.851l4.929,4.929
	c0.122,0.122,0.287,0.19,0.459,0.19s0.338-0.068,0.459-0.19l4.886-4.89c0.164-0.137,0.315-0.288,0.458-0.458
	c0.547-0.655,0.848-1.486,0.848-2.338c0-2.013-1.638-3.651-3.651-3.651c-1.242,0-2.341,0.624-3.001,1.574
	c-0.66-0.95-1.759-1.574-3.001-1.574c-2.013,0-3.651,1.638-3.651,3.651c0,0.853,0.301,1.684,0.855,2.347
	C12.676,13.602,12.827,13.753,12.947,13.851z M15.334,8.742c1.296,0,2.351,1.055,2.351,2.351c0,0.359,0.291,0.65,0.65,0.65
	s0.65-0.291,0.65-0.65c0-1.296,1.055-2.351,2.351-2.351s2.351,1.055,2.351,2.351c0,0.549-0.194,1.083-0.551,1.51
	c-0.088,0.104-0.185,0.202-0.333,0.329l-4.469,4.469l-4.512-4.508c-0.105-0.088-0.203-0.186-0.294-0.295
	c-0.352-0.421-0.546-0.956-0.546-1.505C12.983,9.796,14.038,8.742,15.334,8.742z"/>
</svg>
